# xmcd CD database file generated by OrangeCD 6.1
#
# Track frame offsets:
#	150
#	15839
#	35356
#	48167
#	69326
#	80125
#	95961
#	107964
#	120965
#	134933
#	151143
#	169872
#	190218
#	208604
#	225705
#	239266
#	253664
#	267056
#	283979
#	300220
#	319137
#
# Disc length: 4481 seconds
#
# Revision: 1
# Processed by: cddbd v1.5.2PL0 Copyright (c) Steve Scherf et al.
# Submitted via: OrangeCD 6.1
#
DISCID=22117f15
DTITLE=Bonnie Raitt - Bonnie Raitt (1971) - Give it up (1972)
DYEAR=1900
DGENRE=Blues
TTITLE0=Bluebird
TTITLE1=Mighty Tight Woman
TTITLE2=Thank You
TTITLE3=Finest Lovin' Man
TTITLE4=Any Day Woman
TTITLE5=Big Road
TTITLE6=Walking Blues
TTITLE7=Danger Heartbreak Dead Ahead
TTITLE8=Since I Fell For You
TTITLE9=I Ain't Blue
TTITLE10=Women Be Wise
TTITLE11=Give It Up Or Let Me Go
TTITLE12=Nothing Seems To Matter
TTITLE13=I Know
TTITLE14=If You Gotta Make A Fool Of Somebody
TTITLE15=Love Me Like A Man
TTITLE16=Too Long At The Fair
TTITLE17=Under The Falling Sky
TTITLE18=You Got To Know How
TTITLE19=You Told Me Baby
TTITLE20=Love Has No Pride
EXTD=
EXTT0=
EXTT1=
EXTT2=
EXTT3=
EXTT4=
EXTT5=
EXTT6=
EXTT7=
EXTT8=
EXTT9=
EXTT10=
EXTT11=
EXTT12=
EXTT13=
EXTT14=
EXTT15=
EXTT16=
EXTT17=
EXTT18=
EXTT19=
EXTT20=
PLAYORDER=
